<svg width="24" height="24" viewBox="0 0 24 24" fill="none" xmlns="http://www.w3.org/2000/svg">
<path d="M18 11C20.2091 11 22 12.7909 22 15C22 17.2091 20.2091 19 18 19H13V14.4142L13.2929 14.7071C13.6834 15.0976 14.3166 15.0976 14.7071 14.7071C15.0976 14.3166 15.0976 13.6834 14.7071 13.2929L12.7071 11.2929C12.5126 11.0984 12.2579 11.0008 12.0029 11L12 11L11.997 11C11.8625 11.0004 11.7343 11.0273 11.6172 11.0759C11.4993 11.1247 11.3888 11.197 11.2929 11.2929L9.29289 13.2929C8.90237 13.6834 8.90237 14.3166 9.29289 14.7071C9.68342 15.0976 10.3166 15.0976 10.7071 14.7071L11 14.4142V19H7C4.23858 19 2 16.7614 2 14C2 11.4673 3.88316 9.37436 6.32568 9.04508C7.13649 6.69118 9.37075 5 12 5C15.3137 5 18 7.68629 18 11Z" fill="white"/>
</svg>
