<svg width="24" height="24" viewBox="0 0 24 24" fill="none" xmlns="http://www.w3.org/2000/svg">
<path fill-rule="evenodd" clip-rule="evenodd" d="M9.85764 5.51446C10.1418 5.04088 9.98823 4.42662 9.51465 4.14248C9.04107 3.85833 8.42681 4.01189 8.14266 4.48547L5.43398 8.99994H3.24674C2.607 8.99994 2.13178 9.59236 2.27056 10.2169L3.87432 17.4338C4.07767 18.3489 4.8893 18.9999 5.8267 18.9999H18.1736C19.111 18.9999 19.9226 18.3489 20.1259 17.4338L21.7297 10.2169C21.8685 9.59236 21.3933 8.99994 20.7535 8.99994H18.5663L15.8576 4.48547C15.5734 4.01189 14.9592 3.85833 14.4856 4.14248C14.012 4.42662 13.8585 5.04088 14.1426 5.51446L16.2339 8.99994H7.76636L9.85764 5.51446ZM6.75746 11.0299C7.29325 10.8959 7.83619 11.2217 7.97013 11.7575L8.97013 15.7575C9.10408 16.2933 8.77832 16.8362 8.24253 16.9701C7.70673 17.1041 7.1638 16.7783 7.02985 16.2425L6.02985 12.2425C5.8959 11.7067 6.22166 11.1638 6.75746 11.0299ZM17.2425 11.0299C17.7783 11.1638 18.1041 11.7067 17.9701 12.2425L16.9701 16.2425C16.8362 16.7783 16.2933 17.1041 15.7575 16.9701C15.2217 16.8362 14.8959 16.2933 15.0299 15.7575L16.0299 11.7575C16.1638 11.2217 16.7067 10.8959 17.2425 11.0299ZM12 11C12.5523 11 13 11.4477 13 12V16C13 16.5523 12.5523 17 12 17C11.4477 17 11 16.5523 11 16V12C11 11.4477 11.4477 11 12 11Z" fill="white"/>
</svg>
