<svg width="24" height="24" viewBox="0 0 24 24" fill="none" xmlns="http://www.w3.org/2000/svg">
<path d="M10 12C10 10.8954 10.8954 10 12 10C13.1046 10 14 10.8954 14 12C14 13.1046 13.1046 14 12 14C10.8954 14 10 13.1046 10 12Z" fill="white"/>
<path fill-rule="evenodd" clip-rule="evenodd" d="M2 12C2.55556 9.66667 5.33333 5 12 5C18.6667 5 21.4444 9.66667 22 12C21.4444 14.5278 18.6667 19 12 19C5.31853 19 2.55556 14.1389 2 12ZM12 8C9.79086 8 8 9.79086 8 12C8 14.2091 9.79086 16 12 16C14.2091 16 16 14.2091 16 12C16 9.79086 14.2091 8 12 8Z" fill="white"/>
<path d="M17 10C17 11.1046 16.1046 12 15 12C13.8954 12 13 11.1046 13 10C13 8.89543 13.8954 8 15 8C16.1046 8 17 8.89543 17 10Z" fill="white"/>
</svg>
