<svg width="24" height="24" viewBox="0 0 24 24" fill="none" xmlns="http://www.w3.org/2000/svg">
<path fill-rule="evenodd" clip-rule="evenodd" d="M11.2115 4.3343C11.0602 4.54447 11 4.82669 11 5V6H9V5C9 4.50664 9.13978 3.78887 9.58847 3.1657C10.0739 2.49153 10.8741 2 12 2C13.1259 2 13.9261 2.49153 14.4115 3.1657C14.8602 3.78887 15 4.50664 15 5V6H13V5C13 4.82669 12.9398 4.54447 12.7885 4.3343C12.6739 4.17513 12.4741 4 12 4C11.5259 4 11.3261 4.17513 11.2115 4.3343Z" fill="white"/>
<path fill-rule="evenodd" clip-rule="evenodd" d="M7 5C5.34315 5 4 6.34315 4 8V19C4 20.6569 5.34315 22 7 22H17C18.6569 22 20 20.6569 20 19V8C20 6.34315 18.6569 5 17 5H7ZM8 8C7.44772 8 7 8.44772 7 9C7 9.55228 7.44772 10 8 10H16C16.5523 10 17 9.55228 17 9C17 8.44772 16.5523 8 16 8H8ZM7 13C7 12.4477 7.44772 12 8 12H16C16.5523 12 17 12.4477 17 13C17 13.5523 16.5523 14 16 14H8C7.44772 14 7 13.5523 7 13ZM8 16C7.44772 16 7 16.4477 7 17C7 17.5523 7.44772 18 8 18H11C11.5523 18 12 17.5523 12 17C12 16.4477 11.5523 16 11 16H8Z" fill="white"/>
</svg>
