<svg width="24" height="24" viewBox="0 0 24 24" fill="none" xmlns="http://www.w3.org/2000/svg">
<path fill-rule="evenodd" clip-rule="evenodd" d="M12 22C17.5228 22 22 17.5228 22 12C22 6.47715 17.5228 2 12 2C6.47715 2 2 6.47715 2 12C2 17.5228 6.47715 22 12 22ZM13 8C13 7.44772 13.4477 7 14 7H16C16.5523 7 17 7.44772 17 8V10C17 10.5523 16.5523 11 16 11C15.5712 11 15.2055 10.7301 15.0633 10.351L13.4462 11.9681C13.7981 12.5636 14 13.2582 14 14C14 16.2091 12.2091 18 10 18C7.79086 18 6 16.2091 6 14C6 11.7909 7.79086 10 10 10C10.7418 10 11.4365 10.2019 12.032 10.5539L13.6492 8.93672C13.2699 8.79462 13 8.42883 13 8ZM8 14C8 12.8954 8.89543 12 10 12C11.1046 12 12 12.8954 12 14C12 15.1046 11.1046 16 10 16C8.89543 16 8 15.1046 8 14Z" fill="white"/>
</svg>
