<svg width="24" height="24" viewBox="0 0 24 24" fill="none" xmlns="http://www.w3.org/2000/svg">
<path fill-rule="evenodd" clip-rule="evenodd" d="M6 2C3.79086 2 2 3.79086 2 6V18C2 20.2091 3.79086 22 6 22H18C20.2091 22 22 20.2091 22 18V6C22 3.79086 20.2091 2 18 2H6ZM5 6C5 5.44772 5.44772 5 6 5H7C7.55228 5 8 5.44772 8 6V7C8 7.55228 7.55228 8 7 8H6C5.44772 8 5 7.55228 5 7V6ZM5 11.5C5 10.9477 5.44772 10.5 6 10.5H7C7.55228 10.5 8 10.9477 8 11.5V12.5C8 13.0523 7.55228 13.5 7 13.5H6C5.44772 13.5 5 13.0523 5 12.5V11.5ZM6 16C5.44772 16 5 16.4477 5 17V18C5 18.5523 5.44772 19 6 19H7C7.55228 19 8 18.5523 8 18V17C8 16.4477 7.55228 16 7 16H6ZM10.5 6C10.5 5.44772 10.9477 5 11.5 5H12.5C13.0523 5 13.5 5.44772 13.5 6V7C13.5 7.55228 13.0523 8 12.5 8H11.5C10.9477 8 10.5 7.55228 10.5 7V6ZM11.5 10.5C10.9477 10.5 10.5 10.9477 10.5 11.5V12.5C10.5 13.0523 10.9477 13.5 11.5 13.5H12.5C13.0523 13.5 13.5 13.0523 13.5 12.5V11.5C13.5 10.9477 13.0523 10.5 12.5 10.5H11.5ZM10.5 17C10.5 16.4477 10.9477 16 11.5 16H12.5C13.0523 16 13.5 16.4477 13.5 17V18C13.5 18.5523 13.0523 19 12.5 19H11.5C10.9477 19 10.5 18.5523 10.5 18V17ZM17 5C16.4477 5 16 5.44772 16 6V7C16 7.55228 16.4477 8 17 8H18C18.5523 8 19 7.55228 19 7V6C19 5.44772 18.5523 5 18 5H17ZM16 11.5C16 10.9477 16.4477 10.5 17 10.5H18C18.5523 10.5 19 10.9477 19 11.5V12.5C19 13.0523 18.5523 13.5 18 13.5H17C16.4477 13.5 16 13.0523 16 12.5V11.5ZM17 16C16.4477 16 16 16.4477 16 17V18C16 18.5523 16.4477 19 17 19H18C18.5523 19 19 18.5523 19 18V17C19 16.4477 18.5523 16 18 16H17Z" fill="white"/>
</svg>
