<svg width="24" height="24" viewBox="0 0 24 24" fill="none" xmlns="http://www.w3.org/2000/svg">
<path fill-rule="evenodd" clip-rule="evenodd" d="M12 22C17.5228 22 22 17.5228 22 12C22 6.47715 17.5228 2 12 2C6.47715 2 2 6.47715 2 12C2 17.5228 6.47715 22 12 22ZM16.7071 7.29289C17.0976 7.68342 17.0976 8.31658 16.7071 8.70711L8.70711 16.7071C8.31658 17.0976 7.68342 17.0976 7.29289 16.7071C6.90237 16.3166 6.90237 15.6834 7.29289 15.2929L15.2929 7.29289C15.6834 6.90237 16.3166 6.90237 16.7071 7.29289ZM10 8.5C10 9.32843 9.32843 10 8.5 10C7.67157 10 7 9.32843 7 8.5C7 7.67157 7.67157 7 8.5 7C9.32843 7 10 7.67157 10 8.5ZM17 15.5C17 16.3284 16.3284 17 15.5 17C14.6716 17 14 16.3284 14 15.5C14 14.6716 14.6716 14 15.5 14C16.3284 14 17 14.6716 17 15.5Z" fill="white"/>
</svg>
