<svg width="24" height="24" viewBox="0 0 24 24" fill="none" xmlns="http://www.w3.org/2000/svg">
<path fill-rule="evenodd" clip-rule="evenodd" d="M12 22C17.5228 22 22 17.5228 22 12C22 6.47715 17.5228 2 12 2C6.47715 2 2 6.47715 2 12C2 17.5228 6.47715 22 12 22ZM9.01153 8.8343C8.38065 9.71053 8.09604 10.7551 8.02101 11.5648L8.29289 11.2929C8.68342 10.9024 9.31658 10.9024 9.70711 11.2929C10.0976 11.6834 10.0976 12.3166 9.70711 12.7071L7.70711 14.7071C7.31658 15.0976 6.68342 15.0976 6.29289 14.7071L4.29289 12.7071C3.90237 12.3166 3.90237 11.6834 4.29289 11.2929C4.68342 10.9024 5.31658 10.9024 5.70711 11.2929L6.01279 11.5986C6.08321 10.4657 6.45499 8.96219 7.38847 7.6657C8.47386 6.1582 10.2741 5 13 5V7C10.9259 7 9.72614 7.8418 9.01153 8.8343ZM19.7071 12.7071C19.3166 13.0976 18.6834 13.0976 18.2929 12.7071L17.9872 12.4014C17.9168 13.5343 17.545 15.0378 16.6115 16.3343C15.5261 17.8418 13.7259 19 11 19V17C13.0741 17 14.2739 16.1582 14.9885 15.1657C15.6193 14.2895 15.904 13.2449 15.979 12.4352L15.7071 12.7071C15.3166 13.0976 14.6834 13.0976 14.2929 12.7071C13.9024 12.3166 13.9024 11.6834 14.2929 11.2929L16.2929 9.29289C16.6834 8.90237 17.3166 8.90237 17.7071 9.29289L19.7071 11.2929C20.0976 11.6834 20.0976 12.3166 19.7071 12.7071Z" fill="white"/>
</svg>
