<svg width="24" height="24" viewBox="0 0 24 24" fill="none" xmlns="http://www.w3.org/2000/svg">
<path fill-rule="evenodd" clip-rule="evenodd" d="M12 22C17.5228 22 22 17.5228 22 12C22 6.47715 17.5228 2 12 2C6.47715 2 2 6.47715 2 12C2 17.5228 6.47715 22 12 22ZM17.7071 13.2929L12.7071 8.29289C12.3166 7.90237 11.6834 7.90237 11.2929 8.29289L6.29289 13.2929C5.90237 13.6834 5.90237 14.3166 6.29289 14.7071C6.68342 15.0976 7.31658 15.0976 7.70711 14.7071L12 10.4142L16.2929 14.7071C16.6834 15.0976 17.3166 15.0976 17.7071 14.7071C18.0976 14.3166 18.0976 13.6834 17.7071 13.2929Z" fill="white"/>
</svg>
