<svg width="24" height="24" viewBox="0 0 24 24" fill="none" xmlns="http://www.w3.org/2000/svg">
<path fill-rule="evenodd" clip-rule="evenodd" d="M12 22C17.5228 22 22 17.5228 22 12C22 6.47715 17.5228 2 12 2C6.47715 2 2 6.47715 2 12C2 17.5228 6.47715 22 12 22ZM15 6C12.7909 6 11 7.79086 11 10C11 10.7418 11.2019 11.4365 11.5539 12.032L9.50008 14.0858L8.20718 12.7929L6.79297 14.2071L8.08586 15.5L6.79297 16.7929L8.20718 18.2071L9.50008 16.9142L10.793 18.2071L12.2072 16.7929L10.9143 15.5L12.9681 13.4462C13.5636 13.7981 14.2582 14 15 14C17.2091 14 19 12.2091 19 10C19 7.79086 17.2091 6 15 6ZM13 10C13 8.89543 13.8954 8 15 8C16.1046 8 17 8.89543 17 10C17 11.1046 16.1046 12 15 12C13.8954 12 13 11.1046 13 10Z" fill="white"/>
</svg>
