<svg width="24" height="24" viewBox="0 0 24 24" fill="none" xmlns="http://www.w3.org/2000/svg">
<path fill-rule="evenodd" clip-rule="evenodd" d="M12 22C17.5228 22 22 17.5228 22 12C22 6.47715 17.5228 2 12 2C6.47715 2 2 6.47715 2 12C2 17.5228 6.47715 22 12 22ZM16.703 14.4201L15.5148 13.2294C15.1188 12.8325 14.3267 12.8325 13.9307 13.2294L13.1386 14.0232C11.718 13.8211 10.1683 12.2371 9.97032 10.848L10.7624 10.0542C11.1584 9.65728 11.1585 8.86345 10.7624 8.46658L9.56717 7.32148C9.17107 6.92457 8.38628 6.87893 7.99019 7.27588C7.19812 8.06968 7 8.66512 7 9.45887C7 10.6496 7.19824 12.0385 9.57445 14.4199C11.9507 16.8013 12.9405 17 14.5246 17C14.9304 17 15.9367 16.7756 16.7029 16.0077C17.099 15.6107 17.099 14.817 16.703 14.4201Z" fill="white"/>
</svg>
