<svg width="24" height="24" viewBox="0 0 24 24" fill="none" xmlns="http://www.w3.org/2000/svg">
<path fill-rule="evenodd" clip-rule="evenodd" d="M6 2C3.79086 2 2 3.79086 2 6V18C2 20.2091 3.79086 22 6 22H18C20.2091 22 22 20.2091 22 18V6C22 3.79086 20.2091 2 18 2H6ZM8.70711 5.29288C8.61123 5.197 8.50073 5.12466 8.38278 5.07586C8.02031 4.92589 7.58747 4.99829 7.29283 5.29294L5.29289 7.29288C4.90237 7.6834 4.90237 8.31657 5.29289 8.70709C5.68342 9.09761 6.31658 9.09761 6.70711 8.70709L7 8.4142V14C7 14.5523 7.44772 15 8 15C8.55228 15 9 14.5523 9 14V8.4142L9.29289 8.70709C9.68342 9.09761 10.3166 9.09761 10.7071 8.70709C11.0976 8.31657 11.0976 7.6834 10.7071 7.29288L8.70711 5.29288ZM13.2929 16.7071L15.2922 18.7064L15.2995 18.7136C15.3938 18.8062 15.502 18.8764 15.6172 18.9241C15.7351 18.973 15.8644 19 16 19C16.1356 19 16.2649 18.973 16.3828 18.9241C16.498 18.8764 16.6062 18.8062 16.7005 18.7136L16.7078 18.7064L18.7071 16.7071C19.0976 16.3166 19.0976 15.6834 18.7071 15.2929C18.3166 14.9024 17.6834 14.9024 17.2929 15.2929L17 15.5858V9.99998C17 9.4477 16.5523 8.99998 16 8.99998C15.4477 8.99998 15 9.4477 15 9.99998V15.5858L14.7071 15.2929C14.3166 14.9024 13.6834 14.9024 13.2929 15.2929C12.9024 15.6834 12.9024 16.3166 13.2929 16.7071Z" fill="white"/>
</svg>
