<svg width="24" height="24" viewBox="0 0 24 24" fill="none" xmlns="http://www.w3.org/2000/svg">
<path fill-rule="evenodd" clip-rule="evenodd" d="M6 2C3.79086 2 2 3.79086 2 6V18C2 20.2091 3.79086 22 6 22H18C20.2091 22 22 20.2091 22 18V6C22 3.79086 20.2091 2 18 2H6ZM17 8C17.5523 8 18 8.44772 18 9V17C18 17.5523 17.5523 18 17 18C16.4477 18 16 17.5523 16 17V9C16 8.44772 16.4477 8 17 8ZM7 14C7.55228 14 8 14.4477 8 15V17C8 17.5523 7.55228 18 7 18C6.44772 18 6 17.5523 6 17V15C6 14.4477 6.44772 14 7 14ZM12 12C12.5523 12 13 12.4477 13 13V17C13 17.5523 12.5523 18 12 18C11.4477 18 11 17.5523 11 17V13C11 12.4477 11.4477 12 12 12Z" fill="white"/>
</svg>
