<svg width="24" height="24" viewBox="0 0 24 24" fill="none" xmlns="http://www.w3.org/2000/svg">
<path fill-rule="evenodd" clip-rule="evenodd" d="M9 2C8.44772 2 8 2.44772 8 3V4H5C4.44772 4 4 4.44772 4 5C4 5.55228 4.44772 6 5 6V19C5 20.6569 6.34315 22 8 22H16C17.6569 22 19 20.6569 19 19V6C19.5523 6 20 5.55228 20 5C20 4.44772 19.5523 4 19 4H16V3C16 2.44772 15.5523 2 15 2H9ZM10 8C10.5523 8 11 8.44772 11 9V17C11 17.5523 10.5523 18 10 18C9.44772 18 9 17.5523 9 17V9C9 8.44772 9.44772 8 10 8ZM14 8C14.5523 8 15 8.44772 15 9V17C15 17.5523 14.5523 18 14 18C13.4477 18 13 17.5523 13 17V9C13 8.44772 13.4477 8 14 8Z" fill="white"/>
</svg>
