<svg width="24" height="24" viewBox="0 0 24 24" fill="none" xmlns="http://www.w3.org/2000/svg">
<path fill-rule="evenodd" clip-rule="evenodd" d="M2 11C2 9.34315 3.34315 8 5 8H17C18.6569 8 20 9.34315 20 11V17C20 18.6569 18.6569 20 17 20H5C3.34315 20 2 18.6569 2 17V11ZM5 10C4.44772 10 4 10.4477 4 11V17C4 17.5523 4.44772 18 5 18H17C17.5523 18 18 17.5523 18 17V11C18 10.4477 17.5523 10 17 10H5Z" fill="white"/>
<path fill-rule="evenodd" clip-rule="evenodd" d="M19 13C19 12.4477 19.4477 12 20 12H21C21.5523 12 22 12.4477 22 13V15C22 15.5523 21.5523 16 21 16H20C19.4477 16 19 15.5523 19 15V13Z" fill="white"/>
<path d="M5 12C5 11.4477 5.44772 11 6 11H16C16.5523 11 17 11.4477 17 12V16C17 16.5523 16.5523 17 16 17H6C5.44772 17 5 16.5523 5 16V12Z" fill="white"/>
</svg>
