<svg width="24" height="24" viewBox="0 0 24 24" fill="none" xmlns="http://www.w3.org/2000/svg">
<path fill-rule="evenodd" clip-rule="evenodd" d="M6 2C3.79086 2 2 3.79086 2 6V18C2 20.2091 3.79086 22 6 22H18C20.2091 22 22 20.2091 22 18V6C22 3.79086 20.2091 2 18 2H6ZM19.8322 8.55468C20.1385 8.09516 20.0143 7.47429 19.5548 7.16793C19.0953 6.86158 18.4744 6.98576 18.1681 7.44528L14.7228 12.6132L9.55481 9.16793C9.09528 8.86158 8.47441 8.98576 8.16806 9.44528L4.16806 15.4453C3.8617 15.9048 3.98588 16.5257 4.44541 16.832C4.90493 17.1384 5.5258 17.0142 5.83216 16.5547L9.27746 11.3867L14.4454 14.832C14.9049 15.1384 15.5258 15.0142 15.8322 14.5547L19.8322 8.55468Z" fill="white"/>
</svg>
