<svg width="24" height="24" viewBox="0 0 24 24" fill="none" xmlns="http://www.w3.org/2000/svg">
<path fill-rule="evenodd" clip-rule="evenodd" d="M6 2C3.79086 2 2 3.79086 2 6V18C2 20.2091 3.79086 22 6 22H18C20.2091 22 22 20.2091 22 18V6C22 3.79086 20.2091 2 18 2H6ZM10.8966 5.18804C12.5216 3.60399 15.1563 3.60399 16.7813 5.18804C18.1825 6.55398 18.3754 8.65174 17.3601 10.2192C17.2026 9.97034 17.0096 9.71309 16.7812 9.49041C16.5027 9.21896 16.1201 8.98072 15.7759 8.79792C16.0688 8.07001 15.9135 7.21036 15.3101 6.62214C14.4976 5.83011 13.1803 5.83011 12.3678 6.62214L9.42548 9.49033C8.61298 10.2824 8.61298 11.5665 9.42548 12.3585C10.238 13.1506 11.5553 13.1506 12.3678 12.3585L12.9843 11.7576C13.2941 11.9312 13.6138 12.1392 13.8389 12.3586C14.064 12.578 14.2774 12.8897 14.4554 13.1917L13.8389 13.7926C12.214 15.3767 9.57932 15.3767 7.95432 13.7926C6.32933 12.2086 6.32933 9.6403 7.95432 8.05624L10.8966 5.18804ZM10.1611 10.2074C11.786 8.62332 14.4207 8.62332 16.0457 10.2074C17.6707 11.7914 17.6707 14.3597 16.0457 15.9438L13.1034 18.812C11.4784 20.396 8.84374 20.396 7.21874 18.812C5.81753 17.446 5.62457 15.3483 6.63986 13.7809C6.79735 14.0297 6.99031 14.287 7.21874 14.5097C7.52367 14.8069 7.89179 15.0425 8.21831 15.2166C7.93328 15.9414 8.09048 16.7935 8.6899 17.3779C9.5024 18.1699 10.8197 18.1699 11.6322 17.3779L14.5745 14.5097C15.387 13.7176 15.387 12.4335 14.5745 11.6415C13.762 10.8494 12.4447 10.8494 11.6322 11.6415L10.9989 12.2588C10.7163 12.0963 10.4165 11.8905 10.1611 11.6415C9.94037 11.4263 9.72642 11.112 9.54659 10.8064L10.1611 10.2074Z" fill="white"/>
</svg>
