<svg width="24" height="24" viewBox="0 0 24 24" fill="none" xmlns="http://www.w3.org/2000/svg">
<path d="M6 2C3.79086 2 2 3.79086 2 6V11H12.5858L10.2929 8.70711C9.90237 8.31658 9.90237 7.68342 10.2929 7.29289C10.6834 6.90237 11.3166 6.90237 11.7071 7.29289L15.7064 11.2922L15.7136 11.2995C15.8063 11.3938 15.8764 11.502 15.9241 11.6172C15.9727 11.7343 15.9996 11.8625 16 11.997L16 12L16 12.003C15.9992 12.2746 15.8901 12.5208 15.7136 12.7005L15.7064 12.7078L11.7071 16.7071C11.3166 17.0976 10.6834 17.0976 10.2929 16.7071C9.90237 16.3166 9.90237 15.6834 10.2929 15.2929L12.5858 13H2V18C2 20.2091 3.79086 22 6 22H18C20.2091 22 22 20.2091 22 18V6C22 3.79086 20.2091 2 18 2H6Z" fill="white"/>
</svg>
