<svg width="24" height="24" viewBox="0 0 24 24" fill="none" xmlns="http://www.w3.org/2000/svg">
<path fill-rule="evenodd" clip-rule="evenodd" d="M6 2C3.79086 2 2 3.79086 2 6V18C2 20.2091 3.79086 22 6 22H18C20.2091 22 22 20.2091 22 18V6C22 3.79086 20.2091 2 18 2H6ZM16.7502 7.96856C16.4091 8.58366 15.7532 9 15 9C14.2468 9 13.5909 8.58366 13.2498 7.96856C13.1699 7.98908 13.0862 8 13 8H6C5.44772 8 5 7.55228 5 7C5 6.44772 5.44772 6 6 6H13C13.0862 6 13.1699 6.01092 13.2498 6.03144C13.5909 5.41634 14.2468 5 15 5C15.7532 5 16.4091 5.41634 16.7502 6.03144C16.8301 6.01092 16.9138 6 17 6H18C18.5523 6 19 6.44772 19 7C19 7.55228 18.5523 8 18 8H17C16.9138 8 16.8301 7.98908 16.7502 7.96856ZM10.7502 12.9686C10.4091 13.5837 9.75319 14 9 14C8.24681 14 7.59087 13.5837 7.24975 12.9686C7.16992 12.9891 7.08624 13 7 13H6C5.44772 13 5 12.5523 5 12C5 11.4477 5.44772 11 6 11H7C7.08624 11 7.16992 11.0109 7.24975 11.0314C7.59087 10.4163 8.24681 10 9 10C9.75319 10 10.4091 10.4163 10.7502 11.0314C10.8301 11.0109 10.9138 11 11 11H18C18.5523 11 19 11.4477 19 12C19 12.5523 18.5523 13 18 13H11C10.9138 13 10.8301 12.9891 10.7502 12.9686ZM15 19C15.7532 19 16.4091 18.5837 16.7502 17.9686C16.8301 17.9891 16.9138 18 17 18H18C18.5523 18 19 17.5523 19 17C19 16.4477 18.5523 16 18 16H17C16.9138 16 16.8301 16.0109 16.7502 16.0314C16.4091 15.4163 15.7532 15 15 15C14.2468 15 13.5909 15.4163 13.2498 16.0314C13.1699 16.0109 13.0862 16 13 16H6C5.44772 16 5 16.4477 5 17C5 17.5523 5.44772 18 6 18H13C13.0862 18 13.1699 17.9891 13.2498 17.9686C13.5909 18.5837 14.2468 19 15 19Z" fill="white"/>
</svg>
