<svg width="24" height="24" viewBox="0 0 24 24" fill="none" xmlns="http://www.w3.org/2000/svg">
<path fill-rule="evenodd" clip-rule="evenodd" d="M7 8C7 6.95088 7.12462 5.48872 7.81592 4.25974C8.17102 3.62845 8.68058 3.05012 9.39691 2.63486C10.1125 2.22005 10.979 2 12 2C13.021 2 13.8875 2.22005 14.6031 2.63486C15.3194 3.05012 15.829 3.62845 16.1841 4.25973C16.8754 5.48871 17 6.95087 17 7.99998L18 8C19.6569 8 21 9.34315 21 11V19C21 20.6569 19.6569 22 18 22H6C4.34315 22 3 20.6569 3 19V11C3 9.34315 4.34315 8 6 8H7ZM9 8C9 7.04912 9.12538 6.01128 9.55908 5.24026C9.76648 4.87155 10.0382 4.57488 10.4 4.36514C10.7625 4.15495 11.271 4 12 4C12.729 4 13.2375 4.15495 13.6 4.36514C13.9618 4.57488 14.2335 4.87155 14.4409 5.24027C14.8746 6.01129 15 7.04911 15 8H9ZM14 14C14 14.6904 13.6502 15.299 13.1182 15.6584C13.0797 15.6844 13.0403 15.7091 13 15.7324V17C13 17.5523 12.5523 18 12 18C11.4477 18 11 17.5523 11 17V15.7324C10.4022 15.3866 10 14.7403 10 14C10 12.8954 10.8954 12 12 12C13.1046 12 14 12.8954 14 14Z" fill="white"/>
</svg>
