<svg width="24" height="24" viewBox="0 0 24 24" fill="none" xmlns="http://www.w3.org/2000/svg">
<path fill-rule="evenodd" clip-rule="evenodd" d="M5.83922 2.80388L3.01942 16.9029C3.0065 16.9675 3 17.0332 3 17.099V19C3 20.6569 4.34315 22 6 22H18C19.6569 22 21 20.6569 21 19V17.099C21 17.0332 20.9935 16.9675 20.9806 16.9029L18.1608 2.80388C18.0673 2.33646 17.6569 2 17.1802 2H6.8198C6.34312 2 5.93271 2.33646 5.83922 2.80388ZM16 13C16 13.5523 15.5523 14 15 14C14.4477 14 14 13.5523 14 13C14 12.4477 14.4477 12 15 12C15.5523 12 16 12.4477 16 13ZM19 18H5V19C5 19.5523 5.44772 20 6 20H18C18.5523 20 19 19.5523 19 19V18Z" fill="white"/>
</svg>
