<svg width="24" height="24" viewBox="0 0 24 24" fill="none" xmlns="http://www.w3.org/2000/svg">
<path fill-rule="evenodd" clip-rule="evenodd" d="M12 22C17.5228 22 22 17.5228 22 12C22 6.47715 17.5228 2 12 2C6.47715 2 2 6.47715 2 12C2 17.5228 6.47715 22 12 22ZM17 8C17 9.10457 16.1046 10 15 10C14.5927 10 14.2138 9.87824 13.8978 9.66912L9.23607 12L13.8978 14.3308C14.2138 14.1218 14.5927 14 15 14C16.1046 14 17 14.8954 17 16C17 17.1046 16.1046 18 15 18C13.9356 18 13.0655 17.1686 13.0035 16.1198L8.10223 13.6691C7.7862 13.8782 7.40732 14 7 14C5.89543 14 5 13.1046 5 12C5 10.8954 5.89543 10 7 10C7.4073 10 7.78617 10.1218 8.10218 10.3308L13.0035 7.88018C13.0655 6.83139 13.9357 6 15 6C16.1046 6 17 6.89543 17 8Z" fill="white"/>
</svg>
