<svg width="24" height="24" viewBox="0 0 24 24" fill="none" xmlns="http://www.w3.org/2000/svg">
<path d="M17 5H5C3.89543 5 3 5.89543 3 7V18C3 19.1046 3.89543 20 5 20H17C18.1046 20 19 19.1046 19 18V17.1569C19 17.0702 18.9298 17 18.8431 17H15.5C13.0147 17 11 14.9853 11 12.5C11 10.0147 13.0147 8 15.5 8H18.8431C18.9298 8 19 7.92977 19 7.84314V7C19 5.89543 18.1046 5 17 5Z" fill="white"/>
<path fill-rule="evenodd" clip-rule="evenodd" d="M2 7C2 5.34315 3.34315 4 5 4H17C18.6569 4 20 5.34315 20 7V7.84314C20 8.48206 19.4821 9 18.8431 9H15.5C13.567 9 12 10.567 12 12.5C12 14.433 13.567 16 15.5 16H18.8431C19.4821 16 20 16.5179 20 17.1569V18C20 19.6569 18.6569 21 17 21H5C3.34315 21 2 19.6569 2 18V7ZM5 6C4.44772 6 4 6.44772 4 7V18C4 18.5523 4.44772 19 5 19H17C17.5523 19 18 18.5523 18 18H15.5C12.4624 18 10 15.5376 10 12.5C10 9.46243 12.4624 7 15.5 7H18C18 6.44772 17.5523 6 17 6H5Z" fill="white"/>
<path d="M14 12.5C14 11.6716 14.6716 11 15.5 11H19.5C20.3284 11 21 11.6716 21 12.5C21 13.3284 20.3284 14 19.5 14H15.5C14.6716 14 14 13.3284 14 12.5Z" fill="white"/>
<path fill-rule="evenodd" clip-rule="evenodd" d="M13 12.5C13 11.1193 14.1193 10 15.5 10H19.5C20.8807 10 22 11.1193 22 12.5C22 13.8807 20.8807 15 19.5 15H15.5C14.1193 15 13 13.8807 13 12.5ZM15.5 12C15.2239 12 15 12.2239 15 12.5C15 12.7761 15.2239 13 15.5 13H19.5C19.7761 13 20 12.7761 20 12.5C20 12.2239 19.7761 12 19.5 12H15.5Z" fill="white"/>
</svg>
