<svg width="24" height="24" viewBox="0 0 24 24" fill="none" xmlns="http://www.w3.org/2000/svg">
<path d="M15.6037 15.4484L14.9119 14.7264L15.6037 15.4484ZM10.8059 20.0455L11.4977 20.7676L10.8059 20.0455ZM10.8032 10.8564L11.4963 11.5773L10.8032 10.8564ZM5.98686 15.4459L6.68149 16.1653H6.68149L5.98686 15.4459ZM5.99613 20.0455L6.68798 19.3235L5.99613 20.0455ZM15.6037 10.8525L14.9119 11.5746L15.6037 10.8525ZM8.40081 8.5507L7.70896 7.82865L8.40081 8.5507ZM13.1984 3.95375L12.5066 3.2317V3.2317L13.1984 3.95375ZM18.0103 8.55341L18.7038 9.27382L18.7038 9.27382L18.0103 8.55341ZM13.2013 13.1504L13.8931 13.8724L13.8931 13.8724L13.2013 13.1504ZM8.40081 13.1504L9.09265 12.4283L8.40081 13.1504ZM18.0046 3.95375L17.3128 4.6758L17.3128 4.6758L18.0046 3.95375ZM14.9119 14.7264L10.114 19.3235L11.4977 20.7676L16.2956 16.1704L14.9119 14.7264ZM11.152 11.9082L11.4963 11.5773L10.1102 10.1355L9.76593 10.4664L11.152 11.9082ZM6.68149 16.1653L7.07406 15.7862L5.68481 14.3475L5.29224 14.7265L6.68149 16.1653ZM6.68798 19.3235C5.77308 18.4469 5.77044 17.045 6.68149 16.1653L5.29224 14.7265C3.56443 16.3949 3.57008 19.1059 5.30429 20.7676L6.68798 19.3235ZM10.114 19.3235C9.17265 20.2255 7.62937 20.2255 6.68798 19.3235L5.30429 20.7676C7.01925 22.4108 9.78277 22.4108 11.4977 20.7676L10.114 19.3235ZM14.9119 11.5746C15.8255 12.45 15.8255 13.8509 14.9119 14.7264L16.2956 16.1704C18.031 14.5076 18.031 11.7933 16.2956 10.1305L14.9119 11.5746ZM16.2956 10.1305C14.5823 8.48889 11.8208 8.49102 10.1102 10.1355L11.4963 11.5773C12.4335 10.6763 13.973 10.675 14.9119 11.5746L16.2956 10.1305ZM9.09265 9.27275L13.8903 4.6758L12.5066 3.2317L7.70896 7.82865L9.09265 9.27275ZM17.3167 7.833L16.9563 8.18L18.3434 9.62082L18.7038 9.27382L17.3167 7.833ZM13.0067 11.9519L12.5094 12.4283L13.8931 13.8724L14.3903 13.396L13.0067 11.9519ZM9.09265 12.4283C8.17791 11.5518 8.17791 10.1492 9.09265 9.27275L7.70896 7.82865C5.97247 9.4925 5.97247 12.2086 7.70896 13.8724L9.09265 12.4283ZM7.70896 13.8724C9.42136 15.5132 12.1807 15.5132 13.8931 13.8724L12.5094 12.4283C11.5706 13.3279 10.0315 13.3279 9.09265 12.4283L7.70896 13.8724ZM17.3128 4.6758C18.2276 5.55236 18.2292 6.95454 17.3167 7.833L18.7038 9.27382C20.435 7.60719 20.4315 4.89422 18.6965 3.2317L17.3128 4.6758ZM18.6965 3.2317C16.9825 1.58943 14.2206 1.58943 12.5066 3.2317L13.8903 4.6758C14.8307 3.77473 16.3724 3.77473 17.3128 4.6758L18.6965 3.2317Z" fill="black"/>
</svg>
