<svg width="24" height="24" viewBox="0 0 24 24" fill="none" xmlns="http://www.w3.org/2000/svg">
<path d="M16.1627 14.3603L14.8581 15.665C13.2887 14.9326 11.9404 14.0421 10.9443 13.0557C9.45631 11.5822 8.66065 9.98857 8.33504 9.14197L9.63971 7.8373C9.99996 7.47704 9.99996 6.89295 9.63971 6.53269L6.3782 3.27118C6.01794 2.91092 5.43 2.90583 5.08267 3.27856C3.09443 5.41218 0.651098 9.28551 7.6828 16.3172C14.7145 23.3489 18.5878 20.9055 20.7214 18.9174C21.0942 18.57 21.0891 17.9821 20.7288 17.6218L17.4673 14.3603C17.1071 14.0001 16.523 14.0001 16.1627 14.3603Z" stroke="black" stroke-width="2" stroke-linecap="round" stroke-linejoin="round"/>
</svg>
