<svg width="24" height="24" viewBox="0 0 24 24" fill="none" xmlns="http://www.w3.org/2000/svg">
<path d="M16 3L16.7071 2.29289L16.4142 2H16V3ZM19 6H20V5.58579L19.7071 5.29289L19 6ZM18 20H6V22H18V20ZM6 20V4H4V20H6ZM6 4H16V2H6V4ZM18 6V20H20V6H18ZM19.7071 5.29289L16.7071 2.29289L15.2929 3.70711L18.2929 6.70711L19.7071 5.29289ZM6 20H6H4C4 21.1046 4.89543 22 6 22V20ZM18 22C19.1046 22 20 21.1046 20 20H18V22ZM6 4V4V2C4.89543 2 4 2.89543 4 4H6Z" fill="black"/>
<path d="M15 3V7H19" stroke="black" stroke-width="2"/>
</svg>
