<svg width="24" height="24" viewBox="0 0 24 24" fill="none" xmlns="http://www.w3.org/2000/svg">
<path fill-rule="evenodd" clip-rule="evenodd" d="M14.8355 4.36138C14.401 4.28896 13.9765 4.43766 13.7071 4.70709C13.3826 5.03159 12.8789 5.0936 12.4854 4.8575C11.5169 4.27636 10.9584 4.45987 10.6506 4.68372C10.2504 4.97479 9.9999 5.53292 9.9999 5.99997V14C9.9999 14.4304 9.72446 14.8125 9.31612 14.9487C8.90778 15.0848 8.45815 14.9443 8.19989 14.6L6.74224 12.6564C6.73159 12.6457 6.72103 12.6351 6.71055 12.6246C6.46056 12.3734 6.25798 12.1699 6.01347 12.0291C5.79341 11.9024 5.59019 11.8573 5.31612 11.9487C5.15156 12.0035 5.07046 12.0675 5.02993 12.1091C4.98877 12.1513 4.9609 12.1998 4.94206 12.2602C4.89763 12.4027 4.91532 12.5804 4.94718 12.6795L4.95349 12.6975C4.95961 12.7149 4.96907 12.7415 4.98166 12.7764C5.00688 12.8462 5.04461 12.949 5.09347 13.0772C5.19136 13.3342 5.33287 13.6907 5.50664 14.0871C5.86433 14.9031 6.32166 15.8014 6.78077 16.3753C7.74634 17.5823 9.10102 18.4963 10.4756 19.1096C11.8592 19.7269 13.1738 20 13.9999 20C15.8659 20 17.2852 19.58 18.2662 18.5206C19.2674 17.4393 19.9999 15.4921 19.9999 12C19.9999 11.7149 20.0041 11.4377 20.0083 11.1624C20.0156 10.6896 20.0227 10.2224 20.0082 9.73099C19.9857 8.97536 19.9116 8.29607 19.7334 7.7286C19.5588 7.17284 19.2994 6.77006 18.9289 6.49625C18.558 6.22206 17.9713 5.99998 16.9999 5.99997C16.6212 5.99997 16.2749 5.78597 16.1055 5.44719C15.7337 4.70364 15.2386 4.42854 14.8355 4.36138ZM3.9999 13L3.05452 13.326L3.05116 13.3162C2.91723 12.9144 2.83615 12.2952 3.03273 11.6648C3.24802 10.9744 3.77447 10.3544 4.68367 10.0513C5.60961 9.74267 6.40641 9.94757 7.01137 10.2959C7.4216 10.5321 7.76413 10.8494 7.9999 11.0838V5.99997C7.9999 4.96702 8.49946 3.77515 9.47426 3.06623C10.3962 2.39572 11.5976 2.25486 12.8949 2.82142C13.5565 2.42055 14.3632 2.25508 15.1643 2.38859C16.0963 2.54391 16.9618 3.09054 17.5864 4.02201C18.5998 4.10056 19.443 4.38916 20.1178 4.88795C20.9193 5.48039 21.3785 6.29211 21.6415 7.12934C21.9007 7.95486 21.9828 8.84708 22.0073 9.6717C22.023 10.2003 22.0148 10.7591 22.0074 11.2656C22.0035 11.5283 21.9999 11.7769 21.9999 12C21.9999 15.7079 21.2324 18.2607 19.7337 19.8794C18.2146 21.52 16.1339 22 13.9999 22C12.826 22 11.2316 21.6369 9.66071 20.9361C8.08078 20.2312 6.43549 19.1453 5.21903 17.6247C4.58712 16.8348 4.04445 15.7331 3.67489 14.8901C3.48504 14.4569 3.33111 14.0691 3.22448 13.7892C3.17107 13.649 3.12927 13.5352 3.10051 13.4555C3.08612 13.4157 3.07498 13.3843 3.06726 13.3624L3.05826 13.3368L3.05572 13.3295L3.05452 13.326C3.05448 13.3259 3.05452 13.326 3.9999 13Z" fill="white"/>
<path fill-rule="evenodd" clip-rule="evenodd" d="M13 3.5C13.5523 3.5 14 3.94772 14 4.5V10C14 10.5523 13.5523 11 13 11C12.4477 11 12 10.5523 12 10V4.5C12 3.94772 12.4477 3.5 13 3.5Z" fill="white"/>
<path fill-rule="evenodd" clip-rule="evenodd" d="M17 4C17.5523 4 18 4.44772 18 5V11C18 11.5523 17.5523 12 17 12C16.4477 12 16 11.5523 16 11V5C16 4.44772 16.4477 4 17 4Z" fill="white"/>
</svg>
