<svg width="24" height="24" viewBox="0 0 24 24" fill="none" xmlns="http://www.w3.org/2000/svg">
<path fill-rule="evenodd" clip-rule="evenodd" d="M17 5C16.4477 5 16 5.44772 16 6C16 6.55228 16.4477 7 17 7C17.5523 7 18 6.55228 18 6C18 5.44772 17.5523 5 17 5ZM14 6C14 4.34315 15.3431 3 17 3C18.6569 3 20 4.34315 20 6C20 7.65685 18.6569 9 17 9C15.3431 9 14 7.65685 14 6Z" fill="white"/>
<path fill-rule="evenodd" clip-rule="evenodd" d="M15.8683 6.50385C16.1423 6.98337 15.9757 7.59422 15.4962 7.86823L8.49619 11.8682C8.01667 12.1422 7.40582 11.9756 7.13181 11.4961C6.8578 11.0166 7.02439 10.4058 7.50391 10.1317L14.5039 6.13174C14.9834 5.85773 15.5943 6.02433 15.8683 6.50385Z" fill="white"/>
<path fill-rule="evenodd" clip-rule="evenodd" d="M7.18622 12.4188C7.50723 11.9694 8.13178 11.8653 8.58119 12.1863L15.5812 17.1863C16.0306 17.5073 16.1347 18.1318 15.8137 18.5813C15.4927 19.0307 14.8681 19.1348 14.4187 18.8138L7.41872 13.8138C6.9693 13.4927 6.86521 12.8682 7.18622 12.4188Z" fill="white"/>
<path fill-rule="evenodd" clip-rule="evenodd" d="M6 11C5.44772 11 5 11.4477 5 12C5 12.5523 5.44772 13 6 13C6.55228 13 7 12.5523 7 12C7 11.4477 6.55228 11 6 11ZM3 12C3 10.3431 4.34315 9 6 9C7.65685 9 9 10.3431 9 12C9 13.6569 7.65685 15 6 15C4.34315 15 3 13.6569 3 12Z" fill="white"/>
<path fill-rule="evenodd" clip-rule="evenodd" d="M17 17C16.4477 17 16 17.4477 16 18C16 18.5523 16.4477 19 17 19C17.5523 19 18 18.5523 18 18C18 17.4477 17.5523 17 17 17ZM14 18C14 16.3431 15.3431 15 17 15C18.6569 15 20 16.3431 20 18C20 19.6569 18.6569 21 17 21C15.3431 21 14 19.6569 14 18Z" fill="white"/>
</svg>
