<svg width="24" height="24" viewBox="0 0 24 24" fill="none" xmlns="http://www.w3.org/2000/svg">
<path fill-rule="evenodd" clip-rule="evenodd" d="M16.9498 7.05025C17.3403 7.44077 17.3403 8.07394 16.9498 8.46446L8.4645 16.9497C8.07398 17.3403 7.44081 17.3403 7.05029 16.9497C6.65976 16.5592 6.65976 15.9261 7.05029 15.5355L15.5356 7.05025C15.9261 6.65972 16.5593 6.65972 16.9498 7.05025Z" fill="white"/>
<path fill-rule="evenodd" clip-rule="evenodd" d="M7.05022 7.05025C7.44074 6.65972 8.07391 6.65972 8.46443 7.05025L16.9497 15.5355C17.3402 15.9261 17.3402 16.5592 16.9497 16.9497C16.5592 17.3403 15.926 17.3403 15.5355 16.9497L7.05022 8.46446C6.65969 8.07394 6.65969 7.44077 7.05022 7.05025Z" fill="white"/>
</svg>
