<svg width="24" height="24" viewBox="0 0 24 24" fill="none" xmlns="http://www.w3.org/2000/svg">
<path fill-rule="evenodd" clip-rule="evenodd" d="M2 7C2 5.34315 3.34315 4 5 4H17C18.6569 4 20 5.34315 20 7V8C20 8.55228 19.5523 9 19 9C18.4477 9 18 8.55228 18 8V7C18 6.44772 17.5523 6 17 6H5C4.44772 6 4 6.44772 4 7V18C4 18.5523 4.44772 19 5 19H17C17.5523 19 18 18.5523 18 18V17C18 16.4477 18.4477 16 19 16C19.5523 16 20 16.4477 20 17V18C20 19.6569 18.6569 21 17 21H5C3.34315 21 2 19.6569 2 18V7Z" fill="white"/>
<path fill-rule="evenodd" clip-rule="evenodd" d="M13 12.5C13 11.1193 14.1193 10 15.5 10H19.5C20.8807 10 22 11.1193 22 12.5C22 13.8807 20.8807 15 19.5 15H15.5C14.1193 15 13 13.8807 13 12.5ZM15.5 12C15.2239 12 15 12.2239 15 12.5C15 12.7761 15.2239 13 15.5 13H19.5C19.7761 13 20 12.7761 20 12.5C20 12.2239 19.7761 12 19.5 12H15.5Z" fill="white"/>
</svg>
