<svg width="24" height="24" viewBox="0 0 24 24" fill="none" xmlns="http://www.w3.org/2000/svg">
<path fill-rule="evenodd" clip-rule="evenodd" d="M6 13C6 12.4477 6.44772 12 7 12H17C17.5523 12 18 12.4477 18 13V20C18 20.5523 17.5523 21 17 21H7C6.44772 21 6 20.5523 6 20V13ZM8 14V19H16V14H8Z" fill="white"/>
<path fill-rule="evenodd" clip-rule="evenodd" d="M2 11C2 9.89543 2.89543 9 4 9H20C21.1046 9 22 9.89543 22 11V14C22 16.2091 20.2091 18 18 18H17C16.4477 18 16 17.5523 16 17C16 16.4477 16.4477 16 17 16H18C19.1046 16 20 15.1046 20 14V11H4V14C4 15.1046 4.89543 16 6 16H7C7.55228 16 8 16.4477 8 17C8 17.5523 7.55228 18 7 18H6C3.79086 18 2 16.2091 2 14V11Z" fill="white"/>
<path fill-rule="evenodd" clip-rule="evenodd" d="M6 4C6 3.44772 6.44772 3 7 3H17C17.5523 3 18 3.44772 18 4V7C18 7.55228 17.5523 8 17 8C16.4477 8 16 7.55228 16 7V5H8V7C8 7.55228 7.55228 8 7 8C6.44772 8 6 7.55228 6 7V4Z" fill="white"/>
</svg>
