<svg width="24" height="24" viewBox="0 0 24 24" fill="none" xmlns="http://www.w3.org/2000/svg">
<path fill-rule="evenodd" clip-rule="evenodd" d="M15 5C12.2386 5 10 7.23858 10 10C10 12.7614 12.2386 15 15 15C17.7614 15 20 12.7614 20 10C20 7.23858 17.7614 5 15 5ZM8 10C8 6.13401 11.134 3 15 3C18.866 3 22 6.13401 22 10C22 13.866 18.866 17 15 17C11.134 17 8 13.866 8 10Z" fill="white"/>
<path fill-rule="evenodd" clip-rule="evenodd" d="M11.7072 14.7071L4.70718 21.7071L3.29297 20.2929L10.293 13.2929L11.7072 14.7071Z" fill="white"/>
<path fill-rule="evenodd" clip-rule="evenodd" d="M8.29297 21.7071L3.29297 16.7071L4.70718 15.2929L9.70718 20.2929L8.29297 21.7071Z" fill="white"/>
</svg>
