<svg width="24" height="24" viewBox="0 0 24 24" fill="none" xmlns="http://www.w3.org/2000/svg">
<path fill-rule="evenodd" clip-rule="evenodd" d="M6.02221 2.79047C6.12101 2.3294 6.52847 2 7.00001 2H17C17.4715 2 17.879 2.3294 17.9778 2.79047L20.9778 16.7905C21.0411 17.0858 20.9675 17.3938 20.7777 17.6287C20.5878 17.8635 20.302 18 20 18H4.00001C3.69802 18 3.4122 17.8635 3.22234 17.6287C3.03249 17.3938 2.95893 17.0858 3.02221 16.7905L6.02221 2.79047ZM7.80842 4L5.237 16H18.763L16.1916 4H7.80842Z" fill="white"/>
<path fill-rule="evenodd" clip-rule="evenodd" d="M3 17C3 16.4477 3.44772 16 4 16H20C20.5523 16 21 16.4477 21 17V19C21 20.6569 19.6569 22 18 22H6C4.34315 22 3 20.6569 3 19V17ZM5 18V19C5 19.5523 5.44772 20 6 20H18C18.5523 20 19 19.5523 19 19V18H5Z" fill="white"/>
<path d="M16 13C16 13.5523 15.5523 14 15 14C14.4477 14 14 13.5523 14 13C14 12.4477 14.4477 12 15 12C15.5523 12 16 12.4477 16 13Z" fill="white"/>
</svg>
