<svg width="24" height="24" viewBox="0 0 24 24" fill="none" xmlns="http://www.w3.org/2000/svg">
<path fill-rule="evenodd" clip-rule="evenodd" d="M12.5066 3.2317C14.2206 1.58943 16.9825 1.58943 18.6965 3.2317C20.4315 4.89422 20.435 7.60719 18.7038 9.27382L18.3434 9.62082L16.9563 8.18L17.3167 7.833C18.2292 6.95454 18.2276 5.55236 17.3128 4.6758L18.0046 3.95375L17.3128 4.6758C16.3724 3.77473 14.8307 3.77473 13.8903 4.6758L9.09265 9.27275C8.17791 10.1492 8.17791 11.5518 9.09265 12.4283C10.0315 13.3279 11.5706 13.3279 12.5094 12.4283L13.0067 11.9519L14.3903 13.396L13.8931 13.8724C12.1807 15.5132 9.42136 15.5132 7.70896 13.8724C5.97247 12.2086 5.97247 9.4925 7.70896 7.82865L12.5066 3.2317ZM10.1102 10.1355C11.8208 8.49102 14.5823 8.48889 16.2956 10.1305C18.031 11.7933 18.031 14.5076 16.2956 16.1704L11.4977 20.7676C9.78277 22.4108 7.01925 22.4108 5.30429 20.7676C3.57008 19.1059 3.56443 16.3949 5.29224 14.7265L5.68481 14.3475L7.07406 15.7862L6.68149 16.1653C5.77044 17.045 5.77308 18.4469 6.68798 19.3235C7.62937 20.2255 9.17265 20.2255 10.114 19.3235L14.9119 14.7264C15.8255 13.8509 15.8255 12.45 14.9119 11.5746C13.973 10.675 12.4335 10.6763 11.4963 11.5773L11.152 11.9082L9.76593 10.4664L10.1102 10.1355Z" fill="white"/>
</svg>
