<svg width="24" height="24" viewBox="0 0 24 24" fill="none" xmlns="http://www.w3.org/2000/svg">
<path fill-rule="evenodd" clip-rule="evenodd" d="M2 9C2 7.34315 3.34315 6 5 6H16C17.6569 6 19 7.34315 19 9V15C19 16.6569 17.6569 18 16 18H5C3.34315 18 2 16.6569 2 15V9ZM5 8C4.44772 8 4 8.44772 4 9V15C4 15.5523 4.44772 16 5 16H16C16.5523 16 17 15.5523 17 15V9C17 8.44772 16.5523 8 16 8H5Z" fill="white"/>
<path fill-rule="evenodd" clip-rule="evenodd" d="M21 9C21.5523 9 22 9.44772 22 10V14C22 14.5523 21.5523 15 21 15C20.4477 15 20 14.5523 20 14V10C20 9.44772 20.4477 9 21 9Z" fill="white"/>
</svg>
