<svg width="24" height="24" viewBox="0 0 24 24" fill="none" xmlns="http://www.w3.org/2000/svg">
<path fill-rule="evenodd" clip-rule="evenodd" d="M2 9C2 5.13401 5.13401 2 9 2H17C17.5523 2 18 2.44772 18 3C18 3.55228 17.5523 4 17 4H9C6.23858 4 4 6.23858 4 9V17C4 17.5523 3.55228 18 3 18C2.44772 18 2 17.5523 2 17V9Z" fill="white"/>
<path fill-rule="evenodd" clip-rule="evenodd" d="M6 11C6 8.23858 8.23858 6 11 6H17C19.7614 6 22 8.23858 22 11V17C22 19.7614 19.7614 22 17 22H11C8.23858 22 6 19.7614 6 17V11ZM11 8C9.34315 8 8 9.34315 8 11V17C8 18.6569 9.34315 20 11 20H17C18.6569 20 20 18.6569 20 17V11C20 9.34315 18.6569 8 17 8H11Z" fill="white"/>
</svg>
