<svg width="24" height="24" viewBox="0 0 24 24" fill="none" xmlns="http://www.w3.org/2000/svg">
<g clip-path="url(#clip0)">
<path fill-rule="evenodd" clip-rule="evenodd" d="M13.0407 19.6237C16.775 18.6231 18.9911 14.7847 17.9905 11.0504C17.8475 10.517 18.1641 9.96864 18.6976 9.8257C19.2311 9.68275 19.7794 9.99934 19.9223 10.5328C21.2088 15.334 18.3596 20.269 13.5584 21.5555C11.148 22.2014 8.70212 21.804 6.70415 20.642C6.22674 20.3643 6.0648 19.7522 6.34246 19.2748C6.62012 18.7974 7.23223 18.6355 7.70964 18.9131C9.26605 19.8183 11.1656 20.1261 13.0407 19.6237Z" fill="white"/>
<path fill-rule="evenodd" clip-rule="evenodd" d="M16.2346 13.6065C15.8376 13.2226 15.8269 12.5895 16.2108 12.1925L18.2374 10.0965C18.6213 9.69949 19.2544 9.68883 19.6514 10.0727L21.7473 12.0992C22.1444 12.4831 22.1551 13.1162 21.7712 13.5132C21.3873 13.9103 20.7542 13.9209 20.3571 13.537L18.9801 12.2056L17.6486 13.5827C17.2647 13.9797 16.6317 13.9904 16.2346 13.6065Z" fill="white"/>
<path fill-rule="evenodd" clip-rule="evenodd" d="M10.5537 5.19568C6.81948 6.19627 4.6034 10.0346 5.604 13.7689C5.74694 14.3024 5.43036 14.8507 4.89689 14.9936C4.36342 15.1366 3.81509 14.82 3.67215 14.2865C2.38567 9.48534 5.23491 4.55031 10.0361 3.26383C12.4464 2.61798 14.8924 3.01534 16.8903 4.17734C17.3677 4.45499 17.5297 5.0671 17.252 5.54452C16.9744 6.02193 16.3623 6.18386 15.8848 5.9062C14.3284 5.00101 12.4289 4.69324 10.5537 5.19568Z" fill="white"/>
<path fill-rule="evenodd" clip-rule="evenodd" d="M7.35985 11.2129C7.75689 11.5968 7.76754 12.2298 7.38364 12.6269L5.35705 14.7228C4.97315 15.1198 4.34009 15.1305 3.94305 14.7466L1.84714 12.7201C1.45009 12.3363 1.43943 11.7032 1.82332 11.3061C2.20721 10.9091 2.84029 10.8984 3.23733 11.2823L4.61435 12.6137L5.94584 11.2366C6.32974 10.8396 6.96281 10.829 7.35985 11.2129Z" fill="white"/>
</g>
<defs>
<clipPath id="clip0">
<rect width="24" height="24" fill="white"/>
</clipPath>
</defs>
</svg>
