<svg width="24" height="24" viewBox="0 0 24 24" fill="none" xmlns="http://www.w3.org/2000/svg">
<path fill-rule="evenodd" clip-rule="evenodd" d="M20.6402 4.2318C21.0645 4.58537 21.1218 5.21593 20.7682 5.64021L15.7682 11.6402C15.4274 12.0492 14.8259 12.1195 14.4 11.8L11.1419 9.35645L4.75259 16.6585C4.38891 17.0742 3.75715 17.1163 3.34151 16.7526C2.92587 16.3889 2.88375 15.7572 3.24744 15.3415L10.2474 7.34152C10.5919 6.94785 11.1815 6.88617 11.6 7.20003L14.84 9.63001L19.2318 4.35984C19.5854 3.93556 20.2159 3.87824 20.6402 4.2318Z" fill="white"/>
<path fill-rule="evenodd" clip-rule="evenodd" d="M2 20C2 19.4477 2.44772 19 3 19H21C21.5523 19 22 19.4477 22 20C22 20.5523 21.5523 21 21 21H3C2.44772 21 2 20.5523 2 20Z" fill="white"/>
</svg>
