<svg width="24" height="24" viewBox="0 0 24 24" fill="none" xmlns="http://www.w3.org/2000/svg">
<path fill-rule="evenodd" clip-rule="evenodd" d="M9.00499 6.92262C9.00503 6.92264 9.00482 6.9232 9.00428 6.92422L9.00499 6.92262ZM9 7.18718V16.8128L15.9979 12.0245C15.9992 12.0175 16 12.0091 16 12C16 11.9909 15.9992 11.9825 15.9979 11.9755L9 7.18718ZM16.0299 12.0025L16.0297 12.0027L16.0299 12.0025ZM9.00499 17.0774C9.00495 17.0774 9.00467 17.0769 9.00426 17.0757L9.00499 17.0774ZM7.85135 5.29943C8.40282 4.92789 9.15621 4.87068 9.79343 5.3067L17.1594 10.3469C17.7565 10.7554 18 11.4204 18 12C18 12.5796 17.7565 13.2445 17.1594 13.6531L9.79343 18.6933C9.15621 19.1293 8.40282 19.0721 7.85135 18.7006C7.31861 18.3416 7 17.7206 7 17.0402V6.95983C7 6.2794 7.31861 5.65836 7.85135 5.29943Z" fill="white"/>
</svg>
