<svg width="24" height="24" viewBox="0 0 24 24" fill="none" xmlns="http://www.w3.org/2000/svg">
<path d="M13 16C13 16.5523 12.5523 17 12 17C11.4477 17 11 16.5523 11 16C11 15.4477 11.4477 15 12 15C12.5523 15 13 15.4477 13 16Z" fill="white"/>
<path fill-rule="evenodd" clip-rule="evenodd" d="M12 4C7.58172 4 4 7.58172 4 12C4 16.4183 7.58172 20 12 20C16.4183 20 20 16.4183 20 12C20 7.58172 16.4183 4 12 4ZM2 12C2 6.47715 6.47715 2 12 2C17.5228 2 22 6.47715 22 12C22 17.5228 17.5228 22 12 22C6.47715 22 2 17.5228 2 12Z" fill="white"/>
<path fill-rule="evenodd" clip-rule="evenodd" d="M11.9415 8C11.5075 8 11.1031 8.29029 10.9469 8.75009C10.7694 9.27305 10.2015 9.55304 9.67851 9.37547C9.15555 9.19791 8.87555 8.63001 9.05312 8.10705C9.4622 6.90229 10.5828 6 11.9415 6C13.6681 6 15 7.44531 15 9.14286C15 10.0511 14.598 10.7296 14.2088 11.3173C14.1255 11.4431 14.0404 11.5682 13.9536 11.6956C13.6202 12.1854 13.263 12.71 12.8945 13.4472C12.6475 13.9412 12.0468 14.1414 11.5528 13.8944C11.0588 13.6474 10.8586 13.0468 11.1056 12.5528C11.5404 11.6832 11.9872 11.0282 12.3252 10.5327C12.4036 10.4178 12.4761 10.3116 12.5412 10.2131C12.9021 9.66817 13 9.4181 13 9.14286C13 8.47347 12.4886 8 11.9415 8Z" fill="white"/>
</svg>
