<svg width="24" height="24" viewBox="0 0 24 24" fill="none" xmlns="http://www.w3.org/2000/svg">
<path fill-rule="evenodd" clip-rule="evenodd" d="M9.31405 4.04308C9.35709 2.90744 10.2913 2 11.4375 2H12.5625C13.7087 2 14.6429 2.90744 14.686 4.04309L14.8125 4.92895C14.8259 5.02301 14.9352 5.06828 15.0112 5.01128L15.7271 4.47436C16.5606 3.70178 17.8629 3.72072 18.6733 4.53119L19.4688 5.32668C20.2793 6.13715 20.2982 7.43941 19.5256 8.27286L18.9887 8.98875L18.1887 8.38875L18.9887 8.98875C18.9317 9.06476 18.977 9.17406 19.0711 9.1875L19.9569 9.31405C21.0926 9.35709 22 10.2913 22 11.4375V12.5625C22 13.7087 21.0926 14.6429 19.9569 14.686L19.071 14.8125C18.977 14.8259 18.9317 14.9352 18.9887 15.0112L19.5256 15.7271C20.2982 16.5606 20.2793 17.8629 19.4688 18.6733L18.6733 19.4688C17.8629 20.2793 16.5606 20.2982 15.7271 19.5256L15.0112 18.9887L15.6112 18.1887L15.0112 18.9887C14.9352 18.9317 14.8259 18.977 14.8125 19.0711L14.686 19.9569C14.6429 21.0926 13.7087 22 12.5625 22H11.4375C10.2913 22 9.35709 21.0926 9.31405 19.9569L9.1875 19.0711C9.17406 18.977 9.06476 18.9317 8.98875 18.9887L8.27287 19.5256C7.43941 20.2982 6.13715 20.2793 5.32668 19.4688L4.53119 18.6733C3.72072 17.8629 3.70177 16.5606 4.47436 15.7271L5.01128 15.0112L5.81128 15.6112L5.01128 15.0112C5.06828 14.9352 5.02301 14.8259 4.92896 14.8125L4.04309 14.6859C2.90744 14.6429 2 13.7087 2 12.5625V11.4375C2 10.2913 2.90744 9.35709 4.04309 9.31405L4.92895 9.1875L5.07037 10.1774L4.92895 9.1875C5.023 9.17406 5.06828 9.06476 5.01127 8.98875L4.47436 8.27287C3.70177 7.43941 3.72072 6.13715 4.53119 5.32668L5.32668 4.53119C6.13715 3.72072 7.43941 3.70178 8.27286 4.47436L8.98875 5.01128C9.06476 5.06828 9.17406 5.02301 9.1875 4.92895L10.1774 5.07038L9.1875 4.92895L9.31405 4.04308ZM11.4375 4C11.3685 4 11.3125 4.05596 11.3125 4.125C11.3125 4.17232 11.3091 4.21958 11.3024 4.26642L11.1674 5.2118C10.939 6.81068 9.08085 7.58035 7.78875 6.61128L7.02478 6.03829C6.98692 6.0099 6.95113 5.97886 6.91767 5.9454C6.86885 5.89659 6.78971 5.89659 6.74089 5.9454L5.9454 6.7409C5.89658 6.78971 5.89658 6.86886 5.9454 6.91767C5.97886 6.95113 6.0099 6.98692 6.03829 7.02478L6.61127 7.78875C7.58034 9.08085 6.81068 10.939 5.21179 11.1674L4.26642 11.3024C4.21958 11.3091 4.17232 11.3125 4.125 11.3125C4.05596 11.3125 4 11.3685 4 11.4375V12.5625C4 12.6315 4.05596 12.6875 4.125 12.6875C4.17232 12.6875 4.21958 12.6909 4.26642 12.6975L5.2118 12.8326C6.81068 13.061 7.58035 14.9192 6.61128 16.2112L6.03829 16.9752C6.0099 17.0131 5.97886 17.0489 5.9454 17.0823C5.89658 17.1311 5.89658 17.2103 5.9454 17.2591L5.24917 17.9553L5.9454 17.2591L6.74089 18.0546C6.78971 18.1034 6.86885 18.1034 6.91767 18.0546C6.95113 18.0211 6.98692 17.9901 7.02478 17.9617L7.78875 17.3887C9.08085 16.4197 10.939 17.1893 11.1674 18.7882L11.3024 19.7336C11.3091 19.7804 11.3125 19.8277 11.3125 19.875C11.3125 19.944 11.3685 20 11.4375 20H12.5625C12.6315 20 12.6875 19.944 12.6875 19.875C12.6875 19.8277 12.6909 19.7804 12.6976 19.7336L12.8326 18.7882C13.061 17.1893 14.9191 16.4197 16.2112 17.3887L16.9752 17.9617C17.0131 17.9901 17.0489 18.0211 17.0823 18.0546C17.1311 18.1034 17.2103 18.1034 17.2591 18.0546L18.0546 17.2591C18.1034 17.2103 18.1034 17.1311 18.0546 17.0823C18.0211 17.0489 17.9901 17.0131 17.9617 16.9752L17.3887 16.2112C16.4197 14.9192 17.1893 13.061 18.7882 12.8326L19.7336 12.6976C19.7804 12.6909 19.8277 12.6875 19.875 12.6875C19.944 12.6875 20 12.6315 20 12.5625V11.4375C20 11.3685 19.944 11.3125 19.875 11.3125C19.8277 11.3125 19.7804 11.3091 19.7336 11.3024L18.7882 11.1674C17.1893 10.939 16.4197 9.08085 17.3887 7.78875L17.9617 7.02478C17.9901 6.98692 18.0211 6.95113 18.0546 6.91767C18.1034 6.86886 18.1034 6.78971 18.0546 6.7409L17.2591 5.9454L17.9553 5.24917L17.2591 5.9454C17.2103 5.89659 17.1311 5.89659 17.0823 5.9454C17.0489 5.97886 17.0131 6.0099 16.9752 6.03829L16.2112 6.61128L15.6112 5.81128L16.2112 6.61128C14.9192 7.58035 13.061 6.81068 12.8326 5.2118L12.6976 4.26642C12.6909 4.21958 12.6875 4.17232 12.6875 4.125C12.6875 4.05596 12.6315 4 12.5625 4H11.4375Z" fill="white"/>
<path fill-rule="evenodd" clip-rule="evenodd" d="M12 11C11.4477 11 11 11.4477 11 12C11 12.5523 11.4477 13 12 13C12.5523 13 13 12.5523 13 12C13 11.4477 12.5523 11 12 11ZM9 12C9 10.3431 10.3431 9 12 9C13.6569 9 15 10.3431 15 12C15 13.6569 13.6569 15 12 15C10.3431 15 9 13.6569 9 12Z" fill="white"/>
</svg>
